# xmcd
#
# Track frame offsets:
#	150
#	13600
#	29152
#	40122
#	50601
#	61157
#	75990
#	86497
#	102574
#	119536
#	124696
#	130621
#	138136
#	140583
#	144699
#	148372
#	154961
#	164461
#	170566
#	173233
#	176729
#	179671
#	192498
#	206215
#
# Disc length: 2955 seconds
#
# Revision: 0
# Processed by: cddbd v1.5.1PL0 Copyright (c) Steve Scherf et al.
# Submitted via: dBpowerAMP V4.0
#
DISCID=6e0b8918
DTITLE=Wild Billy Childish and The Chatham Singers - Heaven's Journey
DYEAR=2005
DGENRE=Blues
TTITLE0=The Man With the Gallows Eyes
TTITLE1=I Believe
TTITLE2=Heaven's Journey
TTITLE3=God's Rain
TTITLE4=I Cheated My Own Hart
TTITLE5=Burning and Drowning
TTITLE6=The Western Plains
TTITLE7=Ballad of a Lost Man
TTITLE8=A-Z of Your Heart
TTITLE9=The Billy Childish
TTITLE10=Huddie Poem
TTITLE11=The Man Who Thought He Would Never Be A Father
TTITLE12=It's the Poet's Job
TTITLE13=Ants, Moths and Picasso
TTITLE14=Tattoo
TTITLE15=The Last of My Childhood
TTITLE16=I Am An Angry Man
TTITLE17=The Wounded Poet
TTITLE18=I Am The Uncorrected
TTITLE19=Where Eccentrics Fear To Tread
TTITLE20=I Am Bathed In Forgiveness
TTITLE21=I Am Here To Build Jerrosolm
TTITLE22=I Am The Strange Hero Of Hunger
TTITLE23=Death Letter Blues
EXTD=
EXTT0=
EXTT1=
EXTT2=
EXTT3=
EXTT4=
EXTT5=
EXTT6=
EXTT7=
EXTT8=
EXTT9=
EXTT10=
EXTT11=
EXTT12=
EXTT13=
EXTT14=
EXTT15=
EXTT16=
EXTT17=
EXTT18=
EXTT19=
EXTT20=
EXTT21=
EXTT22=
EXTT23=
PLAYORDER=
